<svg width="24" height="24" viewBox="0 0 24 24" fill="none" xmlns="http://www.w3.org/2000/svg">
<path d="M3.02998 8.745H2.39998H1.97998L2.04082 20.28C2.04082 20.28 2.10462 21.1046 2.5 21.5C2.89538 21.8954 3.30082 21.99 3.30082 21.99H20.7158C20.7158 21.99 21.1807 21.975 21.6008 21.435C22.0208 20.895 21.9908 20.28 21.9908 20.28V8.77506L21.8477 8.77497L21.3965 8.77504L20.5 8.77506C20.5 8.77506 20.5 19.5 20.5 20C20.5 20.5 20 20.5 19.5 20.5C19 20.5 4.5 20.5 4 20.5C3.5 20.5 3.51494 19.755 3.5 19.5C3.48506 19.245 3.49582 8.745 3.49582 8.745H3.02998Z" fill="black"/>
<path d="M21.98 5.81006V8.81006H1.97998V5.81006C1.97998 5.27963 2.19069 4.77092 2.56577 4.39584C2.94084 4.02077 3.44955 3.81006 3.97998 3.81006H19.98C20.5104 3.81006 21.0191 4.02077 21.3942 4.39584C21.7693 4.77092 21.98 5.27963 21.98 5.81006Z" fill="#49B5C4"/>
<path d="M9.01001 12C8.74479 12 8.49044 12.1054 8.3029 12.2929C8.11537 12.4804 8.01001 12.7348 8.01001 13V17C8.01001 17.2652 8.11537 17.5196 8.3029 17.7071C8.49044 17.8946 8.74479 18 9.01001 18C9.27523 18 9.52958 17.8946 9.71712 17.7071C9.90465 17.5196 10.01 17.2652 10.01 17V13C10.01 12.7348 9.90465 12.4804 9.71712 12.2929C9.52958 12.1054 9.27523 12 9.01001 12ZM15.01 12C14.7448 12 14.4904 12.1054 14.3029 12.2929C14.1154 12.4804 14.01 12.7348 14.01 13V14H13.01V13C13.01 12.7348 12.9047 12.4804 12.7171 12.2929C12.5296 12.1054 12.2752 12 12.01 12C11.7448 12 11.4904 12.1054 11.3029 12.2929C11.1154 12.4804 11.01 12.7348 11.01 13V15C11.01 15.2652 11.1154 15.5196 11.3029 15.7071C11.4904 15.8946 11.7448 16 12.01 16H14.01V17C14.01 17.2652 14.1154 17.5196 14.3029 17.7071C14.4904 17.8946 14.7448 18 15.01 18C15.2752 18 15.5296 17.8946 15.7171 17.7071C15.9047 17.5196 16.01 17.2652 16.01 17V13C16.01 12.7348 15.9047 12.4804 15.7171 12.2929C15.5296 12.1054 15.2752 12 15.01 12Z" fill="black"/>
<path d="M16 7C15.7348 7 15.4804 6.89464 15.2929 6.70711C15.1054 6.51957 15 6.26522 15 6V3C15 2.73478 15.1054 2.48043 15.2929 2.29289C15.4804 2.10536 15.7348 2 16 2C16.2652 2 16.5196 2.10536 16.7071 2.29289C16.8946 2.48043 17 2.73478 17 3V6C17 6.26522 16.8946 6.51957 16.7071 6.70711C16.5196 6.89464 16.2652 7 16 7ZM9 6V3C9 2.73478 8.89464 2.48043 8.70711 2.29289C8.51957 2.10536 8.26522 2 8 2C7.73478 2 7.48043 2.10536 7.29289 2.29289C7.10536 2.48043 7 2.73478 7 3V6C7 6.26522 7.10536 6.51957 7.29289 6.70711C7.48043 6.89464 7.73478 7 8 7C8.26522 7 8.51957 6.89464 8.70711 6.70711C8.89464 6.51957 9 6.26522 9 6Z" fill="black"/>
</svg>
