<svg width="24" height="24" viewBox="0 0 24 24" fill="none" xmlns="http://www.w3.org/2000/svg">
<path fill-rule="evenodd" clip-rule="evenodd" d="M18 16.76V6C18 5.46957 17.7893 4.96086 17.4142 4.58579C17.0391 4.21071 16.5304 4 16 4H4C3.46957 4 2.96086 4.21071 2.58579 4.58579C2.21071 4.96086 2 5.46957 2 6V20C2 20.5304 2.21071 21.0391 2.58579 21.4142C2.96086 21.7893 3.46957 22 4 22H12.78C13.0452 22 13.2996 21.8946 13.4871 21.7071C13.6746 21.5196 13.78 21.2652 13.78 21C13.7804 20.8006 13.7212 20.6055 13.61 20.44L13.49 20.29C13.4085 20.1998 13.3364 20.1026 13.2743 20H4L4 6H16V17.2608C16.1024 17.3209 16.1995 17.3908 16.29 17.47L16.44 17.59C16.6055 17.7012 16.8006 17.7604 17 17.76C17.2652 17.76 17.5196 17.6546 17.7071 17.4671C17.8946 17.2796 18 17.0252 18 16.76Z" fill="black"/>
<path d="M17 22C16.8684 22.0008 16.7379 21.9755 16.6161 21.9258C16.4943 21.876 16.3834 21.8027 16.29 21.71L14.29 19.71C14.1017 19.5217 13.9959 19.2663 13.9959 19C13.9959 18.7337 14.1017 18.4783 14.29 18.29C14.4783 18.1017 14.7337 17.9959 15 17.9959C15.2663 17.9959 15.5217 18.1017 15.71 18.29L17 19.59L20.29 16.29C20.4783 16.1017 20.7337 15.9959 21 15.9959C21.2663 15.9959 21.5217 16.1017 21.71 16.29C21.8983 16.4783 22.0041 16.7337 22.0041 17C22.0041 17.2663 21.8983 17.5217 21.71 17.71L17.71 21.71C17.6166 21.8027 17.5057 21.876 17.3839 21.9258C17.2621 21.9755 17.1316 22.0008 17 22ZM13 15C13 14.7348 12.8946 14.4804 12.7071 14.2929C12.5196 14.1054 12.2652 14 12 14H6C5.73478 14 5.48043 14.1054 5.29289 14.2929C5.10536 14.4804 5 14.7348 5 15C5 15.2652 5.10536 15.5196 5.29289 15.7071C5.48043 15.8946 5.73478 16 6 16H12C12.2652 16 12.5196 15.8946 12.7071 15.7071C12.8946 15.5196 13 15.2652 13 15ZM14 12H6C5.73478 12 5.48043 11.8946 5.29289 11.7071C5.10536 11.5196 5 11.2652 5 11C5 10.7348 5.10536 10.4804 5.29289 10.2929C5.48043 10.1054 5.73478 10 6 10H14C14.2652 10 14.5196 10.1054 14.7071 10.2929C14.8946 10.4804 15 10.7348 15 11C15 11.2652 14.8946 11.5196 14.7071 11.7071C14.5196 11.8946 14.2652 12 14 12ZM12 2H8C7.46957 2 6.96086 2.21071 6.58579 2.58579C6.21071 2.96086 6 3.46957 6 4V5C6 5.26522 6.10536 5.51957 6.29289 5.70711C6.48043 5.89464 6.73478 6 7 6H13C13.2652 6 13.5196 5.89464 13.7071 5.70711C13.8946 5.51957 14 5.26522 14 5V4C14 3.46957 13.7893 2.96086 13.4142 2.58579C13.0391 2.21071 12.5304 2 12 2Z" fill="#2CA9BC"/>
</svg>
