<svg width="40" height="40" viewBox="0 0 40 40" fill="none" xmlns="http://www.w3.org/2000/svg">
<rect width="40" height="40" rx="10" fill="#67DEC9"/>
<path d="M15 27L11.5 30.6H28.5L25 27H20.25H15Z" fill="#AF75C4"/>
<path d="M24 14H16L20 18L24 14Z" fill="#AF75C3"/>
<path d="M20 20L30.6343 9.36569C31.0627 8.93731 31.2769 8.72312 31.2914 8.53923C31.3039 8.37967 31.2393 8.22374 31.1176 8.1198C30.9774 8 30.6744 8 30.0686 8H9.93137C9.32555 8 9.02265 8 8.88238 8.1198C8.76068 8.22374 8.69609 8.37967 8.70865 8.53923C8.72312 8.72312 8.93731 8.93731 9.36568 9.36568L30.6343 30.6343C31.0627 31.0627 31.2769 31.2769 31.2914 31.4608C31.3039 31.6203 31.2393 31.7763 31.1176 31.8802C30.9774 32 30.6744 32 30.0686 32H9.93137C9.32555 32 9.02265 32 8.88238 31.8802C8.76068 31.7763 8.69609 31.6203 8.70865 31.4608C8.72312 31.2769 8.93731 31.0627 9.36569 30.6343L20 20Z" stroke="#621C7A" stroke-width="2"/>
</svg>
