<svg width="34" height="34" viewBox="0 0 34 34" fill="none" xmlns="http://www.w3.org/2000/svg">
    <rect width="34" height="34" rx="6" fill="#67DEC9"/>
    <path d="M27.9284 15.7856C25.1963 15.7856 25.1963 18.2142 22.4641 18.2142C19.732 18.2142 19.732 15.7856 16.9999 15.7856C14.2677 15.7856 14.2677 18.2142 11.5356 18.2142C8.80343 18.2142 8.80343 15.7856 6.07129 15.7856" stroke="#621C7A" stroke-width="2" stroke-linecap="round" stroke-linejoin="round"/>
    <path d="M6.07129 8.5C8.80343 8.5 8.80343 10.9286 11.5356 10.9286C14.2677 10.9286 14.2677 8.5 16.9999 8.5C19.732 8.5 19.7441 10.9286 22.4763 10.9286C25.2084 10.9286 25.1963 8.5 27.9284 8.5" stroke="#621C7A" stroke-width="2" stroke-linecap="round" stroke-linejoin="round"/>
    <path d="M27.9284 23.0713C25.1963 23.0713 25.1963 25.4999 22.4641 25.4999C19.732 25.4999 19.732 23.0713 16.9999 23.0713C14.2677 23.0713 14.2677 25.4999 11.5356 25.4999C8.80343 25.4999 8.80343 23.0713 6.07129 23.0713" stroke="#621C7A" stroke-width="2" stroke-linecap="round" stroke-linejoin="round"/>
</svg>
