<svg width="24" height="24" viewBox="0 0 24 24" fill="none" xmlns="http://www.w3.org/2000/svg">
<path d="M18.5 12.5818C18.5 8.99202 15.5897 6.08195 12 6.08179C8.41014 6.08179 5.5 8.99192 5.5 12.5818C5.50015 16.1715 8.41024 19.0818 12 19.0818C15.5896 19.0816 18.4998 16.1714 18.5 12.5818ZM11.5 9.58179C11.5 9.30564 11.7239 9.08179 12 9.08179C12.276 9.08195 12.5 9.30574 12.5 9.58179V12.3718L13.792 13.6433C13.9889 13.837 13.9915 14.1535 13.7979 14.3503C13.6042 14.5471 13.2877 14.5498 13.0908 14.3562L11.6494 12.9382C11.5539 12.8443 11.5001 12.7157 11.5 12.5818V9.58179ZM2.82812 5.41187C2.82814 4.74884 3.09171 4.11215 3.56055 3.64331C4.02935 3.17469 4.66524 2.91187 5.32812 2.91187C5.99101 2.91187 6.6269 3.17469 7.0957 3.64331C7.29097 3.83857 7.29097 4.15606 7.0957 4.35132C6.90047 4.54623 6.58384 4.54633 6.38867 4.35132C6.10737 4.07002 5.72595 3.91187 5.32812 3.91187C4.93031 3.91187 4.54888 4.07001 4.26758 4.35132C3.98637 4.6326 3.82813 5.0141 3.82812 5.41187C3.82821 5.80958 3.98634 6.19117 4.26758 6.47241C4.46269 6.66769 4.46279 6.98423 4.26758 7.17944C4.07236 7.37465 3.75582 7.37456 3.56055 7.17944C3.09179 6.71067 2.82821 6.07481 2.82812 5.41187ZM20.1719 5.40991C20.1719 5.01214 20.0137 4.63064 19.7324 4.34937C19.4511 4.0681 19.0696 3.90998 18.6719 3.90991C18.274 3.90991 17.8925 4.06816 17.6113 4.34937C17.4162 4.54456 17.0996 4.54436 16.9043 4.34937C16.709 4.15412 16.7091 3.83761 16.9043 3.64233C17.3731 3.17356 18.0089 2.90991 18.6719 2.90991C19.3348 2.90998 19.9707 3.17358 20.4395 3.64233C20.9082 4.11117 21.1719 4.74695 21.1719 5.40991C21.1719 6.07288 20.9082 6.70865 20.4395 7.17749C20.2442 7.37275 19.9277 7.37276 19.7324 7.17749C19.5372 6.98222 19.5372 6.66571 19.7324 6.47046C20.0137 6.18917 20.1719 5.80768 20.1719 5.40991ZM19.5 12.5818C19.4999 14.7298 18.5946 16.6647 17.1475 18.032L19.3525 20.2273C19.5481 20.4221 19.5491 20.7386 19.3545 20.9343C19.1597 21.13 18.8422 21.1311 18.6465 20.9363L16.373 18.6716C15.1417 19.5574 13.6326 20.0817 12 20.0818C10.3672 20.0818 8.85742 19.5576 7.62598 18.6716L5.35254 20.9363C5.15686 21.1309 4.84028 21.1299 4.64551 20.9343C4.45079 20.7387 4.45109 20.4221 4.64648 20.2273L6.85059 18.032C5.40387 16.6648 4.50008 14.7294 4.5 12.5818C4.5 8.43964 7.85786 5.08179 12 5.08179C16.142 5.08195 19.5 8.43973 19.5 12.5818Z" fill="currentColor"/>
</svg>
