<svg width="20" height="20" viewBox="0 0 20 20" fill="none" xmlns="http://www.w3.org/2000/svg">
<path fill-rule="evenodd" clip-rule="evenodd" d="M5.2 1.81818C5.2 1.36632 5.55818 1 6 1C6.44182 1 6.8 1.36632 6.8 1.81818V2.63636H13.2V1.81818C13.2 1.36632 13.5582 1 14 1C14.4418 1 14.8 1.36632 14.8 1.81818V2.63636H15.6C16.9255 2.63636 18 3.7353 18 5.09091V16.5455C18 17.9011 16.9255 19 15.6 19H4.4C3.07452 19 2 17.9011 2 16.5455V5.09091C2 3.7353 3.07452 2.63636 4.4 2.63636H5.2V1.81818ZM13.2 4.27273V5.09091C13.2 5.54277 13.5582 5.90909 14 5.90909C14.4418 5.90909 14.8 5.54277 14.8 5.09091V4.27273H15.6C16.0418 4.27273 16.4 4.63904 16.4 5.09091V7.54545H3.6V5.09091C3.6 4.63904 3.95818 4.27273 4.4 4.27273H5.2V5.09091C5.2 5.54277 5.55818 5.90909 6 5.90909C6.44182 5.90909 6.8 5.54277 6.8 5.09091V4.27273H13.2ZM3.6 9.18182V16.5455C3.6 16.9973 3.95818 17.3636 4.4 17.3636H15.6C16.0418 17.3636 16.4 16.9973 16.4 16.5455V9.18182H3.6Z" fill="currentColor"/>
</svg>
