<svg width="16" height="16" viewBox="0 0 16 16" fill="none" xmlns="http://www.w3.org/2000/svg">
    <path d="M11.4285 3.46664C11.4023 3.46669 11.381 3.48854 11.381 3.51481V12.2765C11.3811 12.3028 11.4023 12.324 11.4285 12.3241H12.5718C12.5979 12.3239 12.6193 12.3027 12.6193 12.2765V3.51481C12.6193 3.48861 12.5979 3.46678 12.5718 3.46664H11.4285ZM12.5718 2.79997C12.9661 2.80012 13.286 3.12042 13.286 3.51481V12.2765C13.2859 12.6709 12.9661 12.9906 12.5718 12.9907H11.4285C11.0341 12.9907 10.7144 12.6709 10.7144 12.2765V3.51481C10.7144 3.12035 11.0341 2.80002 11.4285 2.79997H12.5718Z" fill="currentColor" />
    <path d="M7.61898 3.4235C7.59275 3.42355 7.5715 3.4448 7.57145 3.47103V8.04264C7.5715 8.06887 7.59275 8.09012 7.61898 8.09017H8.76221C8.78835 8.09002 8.80968 8.06881 8.80973 8.04264V3.47103C8.80968 3.44487 8.78835 3.42365 8.76221 3.4235H7.61898ZM8.76221 2.75684C9.15654 2.75699 9.47635 3.07668 9.4764 3.47103V8.04264C9.47635 8.437 9.15654 8.75669 8.76221 8.75684H7.61898C7.22456 8.75679 6.90484 8.43706 6.90479 8.04264V3.47103C6.90484 3.07661 7.22456 2.75689 7.61898 2.75684H8.76221Z" fill="currentColor" />
    <path d="M3.80941 3.38086C3.78321 3.38091 3.76198 3.4022 3.76188 3.42839L3.76188 10.2858C3.76193 10.312 3.78318 10.3333 3.80941 10.3333H4.95264C4.97878 10.3332 5.00011 10.312 5.00016 10.2858V3.42839C5.00006 3.40226 4.97875 3.38101 4.95264 3.38086H3.80941ZM4.95264 2.71419C5.34694 2.71434 5.66673 3.03407 5.66683 3.42839V10.2858C5.66678 10.6802 5.34697 10.9998 4.95264 11H3.80941C3.41499 10.9999 3.09527 10.6802 3.09521 10.2858L3.09521 3.42839C3.09532 3.03401 3.41502 2.71424 3.80941 2.71419H4.95264Z" fill="currentColor" />
</svg>