<svg width="24" height="24" viewBox="0 0 24 24" fill="none" xmlns="http://www.w3.org/2000/svg">
    <path d="M19.0028 4.99683C19.0021 4.99612 19.0009 4.99587 18.9999 4.99586H18.997L15.538 8.4617L19.0028 5.00269L19.0038 4.99976C19.0037 4.99875 19.0035 4.99756 19.0028 4.99683ZM4.99706 5.00269L8.59567 8.59647L5.00195 4.99683L4.99999 4.99586C4.99896 4.99586 4.99782 4.99614 4.99706 4.99683C4.99634 4.99755 4.99613 4.99875 4.99609 4.99976C4.99609 5.00082 4.99634 5.00193 4.99706 5.00269ZM20.0038 4.99976C20.0038 5.26601 19.8981 5.52144 19.7098 5.70973L13.4101 11.9998L19.7098 18.2899C19.8035 18.3828 19.8778 18.4934 19.9286 18.6151C19.9793 18.7369 20.0057 18.8679 20.0057 18.9999L20.0009 19.0985C19.9911 19.1967 19.9667 19.2932 19.9286 19.3846L19.8866 19.4735C19.8399 19.5605 19.7802 19.64 19.7098 19.7098C19.617 19.8035 19.5064 19.8778 19.3846 19.9286L19.2919 19.9628C19.1975 19.9916 19.099 20.0057 18.9999 20.0057V19.0057L19.0057 18.9999L19.0028 18.9979L15.538 15.5379L18.9999 19.0057V20.0057L18.9013 20.0009C18.8031 19.9911 18.7065 19.9667 18.6151 19.9286C18.4934 19.8778 18.3828 19.8035 18.2899 19.7098L11.9999 13.41L5.70995 19.7098C5.61707 19.8035 5.50648 19.8778 5.38475 19.9286L5.29198 19.9628C5.19756 19.9916 5.09907 20.0057 4.99999 20.0057V19.0057L8.59567 15.4032L4.99413 18.9999L4.99999 19.0057V20.0057L4.90136 20.0009C4.80317 19.9911 4.70664 19.9667 4.61523 19.9286C4.49347 19.8778 4.38294 19.8035 4.29004 19.7098C4.21968 19.64 4.16003 19.5605 4.11328 19.4735L4.07129 19.3846C4.02052 19.2628 3.99414 19.1319 3.99414 18.9999C3.99416 18.901 4.00939 18.8031 4.03809 18.7089L4.07129 18.6151C4.10936 18.5238 4.16086 18.4391 4.22363 18.3631L4.29004 18.2899L10.5898 11.9998L4.29004 5.70973C4.12536 5.54502 4.02384 5.32913 4.00098 5.09937L3.99609 4.99976C3.99614 4.76684 4.0773 4.54263 4.22363 4.36402L4.29004 4.2898C4.47833 4.10157 4.73375 3.99585 4.99999 3.99585L5.0996 4.00073C5.32927 4.02363 5.54529 4.12517 5.70995 4.2898L11.9999 10.5897L18.2899 4.2898C18.4782 4.10157 18.7336 3.99585 18.9999 3.99585L19.0995 4.00073C19.3292 4.02364 19.5452 4.12517 19.7098 4.2898C19.8981 4.47806 20.0037 4.73353 20.0038 4.99976Z" fill="currentColor" />
</svg>