<svg width="18" height="18" viewBox="0 0 18 18" fill="none" xmlns="http://www.w3.org/2000/svg">
    <path d="M15.75 9C15.75 9.14918 15.6907 9.29226 15.5852 9.39775C15.4798 9.50324 15.3367 9.5625 15.1875 9.5625C15.0383 9.5625 14.8952 9.50324 14.7898 9.39775C14.6843 9.29226 14.625 9.14918 14.625 9C14.6234 7.50866 14.0302 6.07887 12.9757 5.02433C11.9211 3.9698 10.4913 3.37664 9 3.375C8.85082 3.375 8.70774 3.31574 8.60225 3.21025C8.49676 3.10476 8.4375 2.96168 8.4375 2.8125C8.4375 2.66332 8.49676 2.52024 8.60225 2.41475C8.70774 2.30926 8.85082 2.25 9 2.25C10.7896 2.25194 12.5054 2.96372 13.7708 4.22917C15.0363 5.49462 15.7481 7.21038 15.75 9ZM11.25 9.5625C11.3992 9.5625 11.5423 9.50324 11.6477 9.39775C11.7532 9.29226 11.8125 9.14918 11.8125 9C11.8125 8.85082 11.7532 8.70774 11.6477 8.60225C11.5423 8.49676 11.3992 8.4375 11.25 8.4375H9.96919C9.87115 8.26899 9.73101 8.12885 9.5625 8.03081V6.1875C9.5625 6.03832 9.50324 5.89524 9.39775 5.78975C9.29226 5.68426 9.14918 5.625 9 5.625C8.85082 5.625 8.70774 5.68426 8.60225 5.78975C8.49676 5.89524 8.4375 6.03832 8.4375 6.1875V8.03081C8.28831 8.11672 8.1609 8.23581 8.06513 8.37886C7.96936 8.52192 7.9078 8.6851 7.88523 8.85577C7.86266 9.02644 7.87968 9.20001 7.93497 9.36305C7.99026 9.52608 8.08234 9.6742 8.20407 9.79593C8.3258 9.91766 8.47392 10.0097 8.63695 10.065C8.79999 10.1203 8.97356 10.1373 9.14423 10.1148C9.3149 10.0922 9.47808 10.0306 9.62114 9.93487C9.76419 9.8391 9.88328 9.71169 9.96919 9.5625H11.25ZM3.27769 6.066C3.16644 6.066 3.05768 6.09899 2.96518 6.1608C2.87268 6.22261 2.80058 6.31046 2.75801 6.41324C2.71543 6.51602 2.70429 6.62912 2.726 6.73824C2.7477 6.84735 2.80127 6.94758 2.87994 7.02625C2.95861 7.10491 3.05884 7.15849 3.16795 7.18019C3.27706 7.2019 3.39016 7.19076 3.49295 7.14818C3.59573 7.10561 3.68358 7.03351 3.74539 6.94101C3.8072 6.84851 3.84019 6.73975 3.84019 6.6285C3.84019 6.47932 3.78092 6.33624 3.67544 6.23075C3.56995 6.12526 3.42687 6.066 3.27769 6.066ZM3.375 9C3.375 8.88875 3.34201 8.77999 3.2802 8.68749C3.21839 8.59499 3.13054 8.52289 3.02776 8.48032C2.92498 8.43774 2.81188 8.4266 2.70276 8.44831C2.59365 8.47001 2.49342 8.52359 2.41475 8.60225C2.33609 8.68092 2.28251 8.78115 2.26081 8.89026C2.2391 8.99938 2.25024 9.11248 2.29282 9.21526C2.33539 9.31804 2.40749 9.40589 2.49999 9.4677C2.59249 9.52951 2.70125 9.5625 2.8125 9.5625C2.96168 9.5625 3.10476 9.50324 3.21025 9.39775C3.31574 9.29226 3.375 9.14918 3.375 9ZM9 14.625C8.88875 14.625 8.77999 14.658 8.68749 14.7198C8.59499 14.7816 8.52289 14.8695 8.48032 14.9722C8.43774 15.075 8.4266 15.1881 8.44831 15.2972C8.47001 15.4064 8.52359 15.5066 8.60225 15.5852C8.68092 15.6639 8.78115 15.7175 8.89026 15.7392C8.99938 15.7609 9.11248 15.7498 9.21526 15.7072C9.31804 15.6646 9.40589 15.5925 9.4677 15.5C9.52951 15.4075 9.5625 15.2988 9.5625 15.1875C9.5625 15.0383 9.50324 14.8952 9.39775 14.7898C9.29226 14.6843 9.14918 14.625 9 14.625ZM4.62431 4.05394C4.51306 4.05394 4.40431 4.08693 4.3118 4.14874C4.2193 4.21054 4.1472 4.29839 4.10463 4.40118C4.06206 4.50396 4.05092 4.61706 4.07262 4.72618C4.09433 4.83529 4.1479 4.93552 4.22657 5.01419C4.30523 5.09285 4.40546 5.14642 4.51457 5.16813C4.62369 5.18983 4.73679 5.17869 4.83957 5.13612C4.94236 5.09355 5.03021 5.02145 5.09201 4.92895C5.15382 4.83644 5.18681 4.72769 5.18681 4.61644C5.18681 4.46725 5.12755 4.32418 5.02206 4.21869C4.91657 4.1132 4.7735 4.05394 4.62431 4.05394ZM6.62569 2.72306C6.51444 2.72306 6.40568 2.75605 6.31318 2.81786C6.22068 2.87967 6.14858 2.96752 6.10601 3.0703C6.06343 3.17309 6.05229 3.28619 6.074 3.3953C6.0957 3.50442 6.14927 3.60464 6.22794 3.68331C6.30661 3.76198 6.40684 3.81555 6.51595 3.83725C6.62506 3.85896 6.73816 3.84782 6.84095 3.80524C6.94373 3.76267 7.03158 3.69057 7.09339 3.59807C7.1552 3.50557 7.18819 3.39681 7.18819 3.28556C7.18819 3.13638 7.12892 2.9933 7.02344 2.88781C6.91795 2.78233 6.77487 2.72306 6.62569 2.72306ZM3.27769 10.809C3.16644 10.809 3.05768 10.842 2.96518 10.9038C2.87268 10.9656 2.80058 11.0535 2.75801 11.1562C2.71543 11.259 2.70429 11.3721 2.726 11.4812C2.7477 11.5904 2.80127 11.6906 2.87994 11.7692C2.95861 11.8479 3.05884 11.9015 3.16795 11.9232C3.27706 11.9449 3.39016 11.9338 3.49295 11.8912C3.59573 11.8486 3.68358 11.7765 3.74539 11.684C3.8072 11.5915 3.84019 11.4828 3.84019 11.3715C3.84019 11.2223 3.78092 11.0792 3.67544 10.9738C3.56995 10.8683 3.42687 10.809 3.27769 10.809ZM4.62431 12.8211C4.51306 12.8211 4.40431 12.8541 4.3118 12.9159C4.2193 12.9777 4.1472 13.0655 4.10463 13.1683C4.06206 13.2711 4.05092 13.3842 4.07262 13.4933C4.09433 13.6024 4.1479 13.7026 4.22657 13.7813C4.30523 13.86 4.40546 13.9135 4.51457 13.9353C4.62369 13.957 4.73679 13.9458 4.83957 13.9032C4.94236 13.8607 5.03021 13.7886 5.09201 13.6961C5.15382 13.6036 5.18681 13.4948 5.18681 13.3836C5.18681 13.2344 5.12755 13.0913 5.02206 12.9858C4.91657 12.8803 4.7735 12.8211 4.62431 12.8211ZM6.62569 14.1519C6.51444 14.1519 6.40568 14.1849 6.31318 14.2467C6.22068 14.3085 6.14858 14.3964 6.10601 14.4992C6.06343 14.602 6.05229 14.7151 6.074 14.8242C6.0957 14.9333 6.14927 15.0335 6.22794 15.1122C6.30661 15.1909 6.40684 15.2444 6.51595 15.2661C6.62506 15.2878 6.73816 15.2767 6.84095 15.2341C6.94373 15.1915 7.03158 15.1194 7.09339 15.0269C7.1552 14.9344 7.18819 14.8257 7.18819 14.7144C7.18819 14.5653 7.12892 14.4222 7.02344 14.3167C6.91795 14.2112 6.77487 14.1519 6.62569 14.1519ZM14.7223 10.809C14.6111 10.809 14.5023 10.842 14.4098 10.9038C14.3173 10.9656 14.2452 11.0535 14.2026 11.1562C14.1601 11.259 14.1489 11.3721 14.1706 11.4812C14.1923 11.5904 14.2459 11.6906 14.3246 11.7692C14.4032 11.8479 14.5035 11.9015 14.6126 11.9232C14.7217 11.9449 14.8348 11.9338 14.9376 11.8912C15.0404 11.8486 15.1282 11.7765 15.19 11.684C15.2518 11.5915 15.2848 11.4828 15.2848 11.3715C15.2848 11.2976 15.2703 11.2245 15.242 11.1562C15.2137 11.088 15.1723 11.026 15.1201 10.9738C15.0678 10.9215 15.0058 10.8801 14.9376 10.8518C14.8693 10.8235 14.7962 10.809 14.7223 10.809ZM13.3757 12.8211C13.2644 12.8211 13.1557 12.8541 13.0632 12.9159C12.9707 12.9777 12.8986 13.0655 12.856 13.1683C12.8134 13.2711 12.8023 13.3842 12.824 13.4933C12.8457 13.6024 12.8993 13.7026 12.9779 13.7813C13.0566 13.86 13.1568 13.9135 13.2659 13.9353C13.3751 13.957 13.4882 13.9458 13.5909 13.9032C13.6937 13.8607 13.7816 13.7886 13.8434 13.6961C13.9052 13.6036 13.9382 13.4948 13.9382 13.3836C13.9382 13.3097 13.9236 13.2365 13.8954 13.1683C13.8671 13.1001 13.8257 13.038 13.7734 12.9858C13.7212 12.9336 13.6592 12.8921 13.5909 12.8639C13.5227 12.8356 13.4496 12.8211 13.3757 12.8211ZM11.3743 14.1519C11.2631 14.1519 11.1543 14.1849 11.0618 14.2467C10.9693 14.3085 10.8972 14.3964 10.8546 14.4992C10.8121 14.602 10.8009 14.7151 10.8226 14.8242C10.8443 14.9333 10.8979 15.0335 10.9766 15.1122C11.0552 15.1909 11.1555 15.2444 11.2646 15.2661C11.3737 15.2878 11.4868 15.2767 11.5896 15.2341C11.6924 15.1915 11.7802 15.1194 11.842 15.0269C11.9038 14.9344 11.9368 14.8257 11.9368 14.7144C11.9368 14.6406 11.9223 14.5674 11.894 14.4992C11.8657 14.4309 11.8243 14.3689 11.7721 14.3167C11.7198 14.2645 11.6578 14.223 11.5896 14.1948C11.5213 14.1665 11.4482 14.1519 11.3743 14.1519Z" fill="currentColor" />
</svg>