<svg width="24" height="24" viewBox="0 0 24 24" fill="none" xmlns="http://www.w3.org/2000/svg">
    <path d="M15.3818 3.51173C15.7332 3.39759 16.1085 3.38322 16.4658 3.46876L16.6182 3.51173L16.8232 3.59376C17.0156 3.68513 17.173 3.80214 17.3037 3.9131C17.4693 4.05364 17.6504 4.23636 17.8359 4.42189L19.5762 6.16114C19.7623 6.34729 19.9452 6.52956 20.0859 6.69532C20.2343 6.87012 20.3941 7.09219 20.4883 7.38185C20.619 7.78396 20.6185 8.21696 20.4883 8.61817C20.3942 8.90783 20.2343 9.12994 20.0859 9.3047C19.9452 9.47043 19.7622 9.65194 19.5762 9.8379L8.70703 20.707C8.5195 20.8946 8.26522 21 8 21H4C3.44772 21 3 20.5523 3 20V16C3.00003 15.7348 3.10545 15.4805 3.29297 15.293L14.1816 4.40431C14.361 4.22492 14.5361 4.05009 14.6963 3.91407C14.8709 3.76586 15.0923 3.60581 15.3818 3.51173ZM5 16.4141V19H7.58594L14.5859 12L12 9.41407L5 16.4141ZM15.9902 5.43849C15.9014 5.51395 15.7861 5.62795 15.5771 5.83692L15.5752 5.8379L13.4141 8.00001L16 10.5859L18.1611 8.42384C18.3705 8.21445 18.486 8.09877 18.5615 8.00978C18.5642 8.00661 18.566 8.0029 18.5684 8.00001C18.566 7.99712 18.5642 7.99341 18.5615 7.99024C18.4858 7.90103 18.3708 7.78585 18.1611 7.57618L16.4219 5.83595C16.2133 5.6274 16.0985 5.51382 16.0098 5.43849C16.0065 5.43575 16.0029 5.43312 16 5.43067C15.997 5.43317 15.9935 5.43569 15.9902 5.43849Z" fill="currentColor" />
</svg>