<svg width="18" height="18" viewBox="0 0 18 18" fill="none" xmlns="http://www.w3.org/2000/svg">
    <path d="M4.50324 12.0033C4.91745 12.0033 5.25319 12.3392 5.25312 12.7534C5.25306 13.1676 4.91722 13.5033 4.50301 13.5033L3.00301 13.503C2.58879 13.503 2.25306 13.1671 2.25312 12.7529C2.25319 12.3387 2.58902 12.003 3.00324 12.003L4.50324 12.0033ZM10.5038 8.2542C10.918 8.25427 11.2538 8.5901 11.2537 9.00432C11.2536 9.41853 10.9178 9.75427 10.5036 9.7542L3.00358 9.75305C2.58937 9.75298 2.25364 9.41714 2.2537 9.00293C2.25376 8.58872 2.5896 8.25298 3.00382 8.25305L10.5038 8.2542ZM15.0044 4.5049C15.4186 4.50496 15.7543 4.8408 15.7543 5.25501C15.7542 5.66923 15.4184 6.00496 15.0042 6.0049L3.00416 6.00305C2.58995 6.00298 2.25421 5.66714 2.25428 5.25293C2.25434 4.83872 2.59018 4.50298 3.00439 4.50305L15.0044 4.5049Z" fill="currentColor" />
</svg>