<svg width="16" height="17" viewBox="0 0 16 17" fill="none" xmlns="http://www.w3.org/2000/svg">
    <path d="M12.6668 9.62614L13.1336 10.1014L13.133 10.1021C13.1325 10.1025 13.1322 10.1035 13.1317 10.104C13.1307 10.1049 13.1294 10.1056 13.1284 10.1066C13.1263 10.1086 13.1243 10.1109 13.1219 10.1131C13.117 10.1177 13.1112 10.1232 13.105 10.1287C13.0926 10.1398 13.0775 10.1523 13.0601 10.1665C13.025 10.1949 12.9797 10.2293 12.9227 10.2668C12.8083 10.3418 12.6489 10.4294 12.437 10.5129C12.0121 10.6802 11.3865 10.826 10.5002 10.826C9.54366 10.826 8.75476 10.508 8.08936 10.2459C7.4006 9.97467 6.8353 9.75895 6.16683 9.75895C5.42824 9.75895 4.97044 9.88033 4.71826 9.97966C4.6999 9.98689 4.68317 9.99544 4.66683 10.0024V13.3592C4.66683 13.7274 4.36835 14.0259 4.00016 14.0259C3.63197 14.0259 3.3335 13.7274 3.3335 13.3592V3.22575C3.33353 3.0472 3.40549 2.87641 3.53271 2.75114L4.00016 3.22575C3.53249 2.75078 3.53301 2.75018 3.53337 2.74984L3.53532 2.74788C3.53628 2.74695 3.53755 2.74627 3.53857 2.74528C3.54073 2.74321 3.54262 2.74043 3.54508 2.73812C3.55001 2.73349 3.55584 2.72867 3.56201 2.72314C3.57435 2.7121 3.58943 2.69958 3.60693 2.68538C3.64198 2.65697 3.68725 2.62257 3.7443 2.58512C3.85865 2.51006 4.01808 2.42249 4.22998 2.33903C4.65488 2.1717 5.2805 2.02588 6.16683 2.02588C7.12325 2.02588 7.91227 2.34325 8.57764 2.60531C9.26639 2.87657 9.83169 3.09229 10.5002 3.09229C11.2388 3.09229 11.6965 2.97155 11.9487 2.87223C12.0753 2.82238 12.1529 2.77672 12.1909 2.75179C12.2092 2.73978 12.2186 2.73223 12.2202 2.73096C12.2197 2.73142 12.2181 2.73268 12.2157 2.73486L12.2046 2.74593C12.2039 2.74664 12.2028 2.74713 12.202 2.74788L12.2 2.74984C12.3915 2.56209 12.6772 2.50755 12.9246 2.61117C13.1723 2.71502 13.3334 2.95722 13.3335 3.22575V9.62614C13.3334 9.80465 13.2615 9.9755 13.1343 10.1007L12.6668 9.62614ZM6.16683 3.35921C5.42824 3.35921 4.97044 3.47994 4.71826 3.57926C4.6999 3.5865 4.68316 3.59505 4.66683 3.60205V8.5988C5.05259 8.49836 5.54556 8.42562 6.16683 8.42562C7.12331 8.42562 7.91224 8.74363 8.57764 9.0057C9.26639 9.27696 9.83169 9.49268 10.5002 9.49268C11.2388 9.49268 11.6965 9.37129 11.9487 9.27197C11.9672 9.2647 11.9838 9.25557 12.0002 9.24854V4.25244C11.6144 4.35289 11.1215 4.42562 10.5002 4.42562C9.5437 4.42562 8.75474 4.10825 8.08936 3.84619C7.4006 3.57493 6.8353 3.35921 6.16683 3.35921Z" fill="currentColor" />
</svg>