<svg width="20" height="21" viewBox="0 0 20 21" fill="none" xmlns="http://www.w3.org/2000/svg">
<path d="M13.15 11.1793H12.25L10.9 14.066L9.10001 8.29246L7.75001 11.1793H6.85001M9.99389 5.05522C8.19443 2.80601 5.19378 2.20098 2.93922 4.26058C0.684676 6.32018 0.367273 9.76376 2.13778 12.1996C3.47508 14.0395 7.27417 17.7332 9.05321 19.4306C9.38027 19.7425 9.5438 19.8986 9.73523 19.96C9.90146 20.0133 10.0862 20.0133 10.2525 19.96C10.4439 19.8986 10.6074 19.7425 10.9345 19.4306C12.7135 17.7332 16.5126 14.0395 17.8499 12.1996C19.6204 9.76376 19.3417 6.29852 17.0485 4.26058C14.7552 2.22265 11.7933 2.80601 9.99389 5.05522Z" stroke="currentColor" stroke-linecap="round" stroke-linejoin="round"/>
</svg>
