<svg width="16" height="16" viewBox="0 0 16 16" fill="none" xmlns="http://www.w3.org/2000/svg">
    <path d="M3.80961 3.23793C3.80961 2.92234 3.55377 2.6665 3.23818 2.6665C2.92259 2.6665 2.66675 2.92234 2.66675 3.23793V12.3808C2.66675 12.6964 2.92259 12.9522 3.23818 12.9522C3.55377 12.9522 3.80961 12.6964 3.80961 12.3808V3.23793Z" fill="currentColor" />
    <path d="M13 3.42855C12.9999 3.40232 12.9787 3.38107 12.9525 3.38102H5.71419C5.68797 3.38107 5.66672 3.40232 5.66667 3.42855V4.57178C5.66682 4.59792 5.68803 4.61925 5.71419 4.6193H12.9525C12.9786 4.61925 12.9998 4.59792 13 4.57178V3.42855ZM13.6667 4.57178C13.6665 4.96611 13.3468 5.28592 12.9525 5.28597H5.71419C5.31984 5.28592 5.00015 4.96611 5 4.57178V3.42855C5.00005 3.03413 5.31978 2.71441 5.71419 2.71436H12.9525C13.3469 2.71441 13.6666 3.03413 13.6667 3.42855V4.57178Z" fill="currentColor" />
    <path d="M13 7.23812C12.9999 7.21189 12.9787 7.19064 12.9525 7.19059H5.71419C5.68797 7.19064 5.66672 7.21189 5.66667 7.23812V8.38135C5.66682 8.40749 5.68803 8.42882 5.71419 8.42887H12.9525C12.9786 8.42882 12.9998 8.40749 13 8.38135V7.23812ZM13.6667 8.38135C13.6665 8.77568 13.3468 9.09549 12.9525 9.09554H5.71419C5.31984 9.09549 5.00015 8.77568 5 8.38135V7.23812C5.00005 6.8437 5.31978 6.52398 5.71419 6.52393H12.9525C13.3469 6.52398 13.6666 6.8437 13.6667 7.23812V8.38135Z" fill="currentColor" />
    <path d="M13 11.0477C12.9999 11.0215 12.9787 11.0002 12.9525 11.0002H5.71419C5.68797 11.0002 5.66672 11.0215 5.66667 11.0477V12.1909C5.66682 12.2171 5.68803 12.2384 5.71419 12.2384H12.9525C12.9786 12.2384 12.9998 12.2171 13 12.1909V11.0477ZM13.6667 12.1909C13.6665 12.5852 13.3468 12.9051 12.9525 12.9051H5.71419C5.31984 12.9051 5.00015 12.5852 5 12.1909V11.0477C5.00005 10.6533 5.31978 10.3335 5.71419 10.3335H12.9525C13.3469 10.3335 13.6666 10.6533 13.6667 11.0477V12.1909Z" fill="currentColor" />
</svg>