<svg width="16" height="16" viewBox="0 0 16 16" fill="none" xmlns="http://www.w3.org/2000/svg">
<path d="M1.49799 10.7999V5.19995C1.49799 4.6482 1.49773 4.20421 1.52703 3.84554C1.55681 3.48099 1.61972 3.16057 1.77078 2.8641C2.01065 2.39332 2.39338 2.01059 2.86416 1.77072C3.16063 1.61966 3.48105 1.55675 3.8456 1.52697C4.20427 1.49767 4.64827 1.49792 5.20001 1.49792H6.00001V2.50197H5.20001C4.63167 2.50197 4.23554 2.50233 3.92721 2.52752C3.6248 2.55223 3.4512 2.59828 3.31986 2.6652C3.03802 2.80882 2.80888 3.03796 2.66527 3.3198C2.59834 3.45114 2.5523 3.62474 2.52758 3.92715C2.50239 4.23548 2.50203 4.63161 2.50203 5.19995V10.7999C2.50203 11.3683 2.50239 11.7644 2.52758 12.0727C2.55229 12.3751 2.59833 12.5487 2.66527 12.6801C2.80888 12.9619 3.03801 13.1911 3.31986 13.3347C3.4512 13.4016 3.6248 13.4477 3.92721 13.4724C4.23553 13.4976 4.63167 13.4979 5.20001 13.4979H6.00001V14.502H5.20001C4.64827 14.502 4.20427 14.5022 3.8456 14.4729C3.48106 14.4431 3.16063 14.3802 2.86416 14.2292C2.39339 13.9893 2.01066 13.6066 1.77078 13.1358C1.61973 12.8393 1.55682 12.5189 1.52703 12.1544C1.49773 11.7957 1.49799 11.3517 1.49799 10.7999ZM14.7099 7.99995L11.0217 11.6882L10.3118 10.9783L12.7881 8.50197H6.00001V7.49792H12.7881L10.3118 5.02164L11.0217 4.31171L14.7099 7.99995Z" fill="currentColor"/>
</svg>
