<svg width="24" height="24" viewBox="0 0 24 24" fill="none" xmlns="http://www.w3.org/2000/svg">
    <path d="M4.5 19C4.5 15.4795 7.48939 12.667 11.125 12.667C11.7796 12.667 12.4132 12.7571 13.0117 12.9268C13.2773 13.0022 13.4317 13.2793 13.3564 13.5449C13.2811 13.8105 13.0039 13.9649 12.7383 13.8896C12.2279 13.745 11.6866 13.667 11.125 13.667C7.99513 13.667 5.5 16.0772 5.5 19C5.5 19.2761 5.27614 19.5 5 19.5C4.72386 19.5 4.5 19.2761 4.5 19ZM15.875 19V17H13.75C13.4739 17 13.25 16.7761 13.25 16.5C13.25 16.2239 13.4739 16 13.75 16H15.875V14C15.875 13.7239 16.0989 13.5 16.375 13.5C16.6511 13.5 16.875 13.7239 16.875 14V16H19C19.2761 16 19.5 16.2239 19.5 16.5C19.5 16.7761 19.2761 17 19 17H16.875V19C16.875 19.2761 16.6511 19.5 16.375 19.5C16.0989 19.5 15.875 19.2761 15.875 19ZM14.125 7.33301C14.1248 5.79106 12.805 4.5 11.125 4.5C9.44499 4.5 8.12519 5.79105 8.125 7.33301C8.125 8.87511 9.44488 10.167 11.125 10.167C12.8051 10.167 14.125 8.8751 14.125 7.33301ZM15.125 7.33301C15.125 9.47281 13.3108 11.167 11.125 11.167C8.93913 11.167 7.125 9.47281 7.125 7.33301C7.12518 5.19336 8.93924 3.5 11.125 3.5C13.3107 3.5 15.1248 5.19336 15.125 7.33301Z" fill="currentColor" />
</svg>