<svg width="24" height="24" viewBox="0 0 24 24" fill="none" xmlns="http://www.w3.org/2000/svg">
    <path fill-rule="evenodd" clip-rule="evenodd" d="M4.4751 4C4.4751 3.58579 4.79746 3.25 5.1951 3.25H8.0751C8.47274 3.25 8.7951 3.58579 8.7951 4C8.7951 4.41421 8.47274 4.75 8.0751 4.75H5.9151V19.25H8.0751C8.47274 19.25 8.7951 19.5858 8.7951 20C8.7951 20.4142 8.47274 20.75 8.0751 20.75H5.1951C4.79746 20.75 4.4751 20.4142 4.4751 20V4ZM15.0351 4C15.0351 3.58579 15.3574 3.25 15.7551 3.25H18.6351C19.0327 3.25 19.3551 3.58579 19.3551 4V20C19.3551 20.4142 19.0327 20.75 18.6351 20.75H15.7551C15.3574 20.75 15.0351 20.4142 15.0351 20C15.0351 19.5858 15.3574 19.25 15.7551 19.25H17.9151V4.75H15.7551C15.3574 4.75 15.0351 4.41421 15.0351 4Z" fill="currentColor" />
</svg>