<svg width="24" height="24" viewBox="0 0 24 24" fill="none" xmlns="http://www.w3.org/2000/svg">
    <path d="M14.9536 14.9458L21 21L14.9536 14.9458ZM17 10C17 13.866 13.866 17 10 17C6.13401 17 3 13.866 3 10C3 6.13401 6.13401 3 10 3C13.866 3 17 6.13401 17 10Z" fill="transparent" />
    <path d="M16 10C16 6.68629 13.3137 4 10 4C6.68629 4 4 6.68629 4 10C4 13.3137 6.68629 16 10 16C13.3137 16 16 13.3137 16 10ZM18 10C18 11.8466 17.3722 13.5455 16.3213 14.8994L21.708 20.293C22.0982 20.6837 22.0978 21.3177 21.707 21.708C21.3163 22.0982 20.6823 22.0978 20.292 21.707L14.9072 16.3145C13.552 17.3692 11.8504 18 10 18C5.58173 18 2 14.4183 2 10C2 5.58173 5.58173 2 10 2C14.4183 2 18 5.58173 18 10Z" fill="currentColor" />
</svg>