<svg width="20" height="20" viewBox="0 0 20 20" fill="none" xmlns="http://www.w3.org/2000/svg">
<path fill-rule="evenodd" clip-rule="evenodd" d="M9.97762 1C9.58467 0.999992 9.25653 0.999992 8.98719 1.01739C8.70679 1.03551 8.44196 1.07455 8.18519 1.17525C7.58937 1.40893 7.11598 1.85713 6.86918 2.42126C6.7407 2.71496 6.70591 3.02447 6.69262 3.3609C6.68194 3.63134 6.53779 3.85699 6.32505 3.97327C6.11232 4.08956 5.83385 4.09494 5.58115 3.96848C5.26678 3.81116 4.96627 3.68492 4.63339 3.64343C3.994 3.56373 3.34734 3.72779 2.8357 4.09951C2.6152 4.2597 2.44705 4.45734 2.2903 4.6782C2.1397 4.89035 1.97567 5.15938 1.77916 5.48164L1.75683 5.51826C1.56032 5.84051 1.39628 6.10952 1.27751 6.33908C1.15389 6.57805 1.05718 6.81475 1.0209 7.07564C0.936718 7.68103 1.10999 8.29328 1.50259 8.77776C1.70695 9.02984 1.97262 9.21319 2.27365 9.39227C2.51574 9.53627 2.65008 9.76734 2.65007 10C2.65006 10.2326 2.51572 10.4636 2.27365 10.6076C1.97259 10.7867 1.70689 10.9701 1.50251 11.2222C1.10991 11.7067 0.936639 12.3189 1.02081 12.9243C1.05709 13.1852 1.1538 13.4219 1.27743 13.6609C1.39619 13.8904 1.56023 14.1594 1.75674 14.4817L1.77907 14.5183C1.97558 14.8406 2.13961 15.1096 2.29021 15.3217C2.44697 15.5426 2.61511 15.7402 2.83561 15.9004C3.34725 16.2721 3.99391 16.4362 4.6333 16.3565C4.96617 16.315 5.26666 16.1888 5.58101 16.0315C5.83375 15.905 6.11225 15.9104 6.325 16.0267C6.53777 16.143 6.68194 16.3687 6.69262 16.6392C6.70591 16.9755 6.74071 17.2851 6.86918 17.5788C7.11598 18.1429 7.58937 18.5911 8.18519 18.8248C8.44196 18.9255 8.70679 18.9645 8.98719 18.9826C9.25653 19 9.58467 19 9.97762 19H10.0223C10.4153 19 10.7434 19 11.0128 18.9826C11.2932 18.9645 11.558 18.9255 11.8148 18.8248C12.4106 18.5911 12.884 18.1429 13.1308 17.5788C13.2593 17.2851 13.2941 16.9755 13.3073 16.6391C13.318 16.3687 13.4621 16.143 13.6749 16.0267C13.8876 15.9104 14.1662 15.905 14.4189 16.0314C14.7332 16.1887 15.0337 16.315 15.3666 16.3564C16.006 16.4361 16.6527 16.2721 17.1643 15.9004C17.3848 15.7402 17.5529 15.5426 17.7097 15.3217C17.8603 15.1096 18.0243 14.8406 18.2208 14.5183L18.2431 14.4817C18.4396 14.1594 18.6037 13.8903 18.7225 13.6608C18.8461 13.4218 18.9428 13.1852 18.9791 12.9243C19.0633 12.3188 18.89 11.7066 18.4974 11.2222C18.293 10.97 18.0273 10.7867 17.7263 10.6076C17.4842 10.4636 17.3499 10.2326 17.3499 9.99992C17.3499 9.76734 17.4842 9.53635 17.7262 9.39235C18.0274 9.21327 18.2931 9.03001 18.4975 8.77776C18.8901 8.29334 19.0634 7.68109 18.9792 7.0757C18.9428 6.8148 18.8462 6.57811 18.7226 6.33914C18.6038 6.1096 18.4398 5.8406 18.2432 5.51838L18.221 5.48173C18.0244 5.15947 17.8604 4.89041 17.7098 4.67825C17.553 4.4574 17.3849 4.25976 17.1644 4.09956C16.6528 3.72785 16.0061 3.56379 15.3666 3.64349C15.0338 3.68498 14.7333 3.8112 14.419 3.96851C14.1663 4.09499 13.8877 4.0896 13.675 3.9733C13.4622 3.857 13.318 3.63132 13.3073 3.36086C13.2941 3.02444 13.2593 2.71494 13.1308 2.42126C12.884 1.85713 12.4106 1.40893 11.8148 1.17525C11.558 1.07455 11.2932 1.03551 11.0128 1.01739C10.7434 0.999992 10.4153 0.999992 10.0223 1H9.97762ZM8.69273 2.33547C8.761 2.30872 8.86463 2.28405 9.07747 2.27029C9.29632 2.25616 9.57892 2.25581 10 2.25581C10.4211 2.25581 10.7037 2.25616 10.9224 2.27029C11.1354 2.28405 11.239 2.30872 11.3072 2.33547C11.578 2.44169 11.7932 2.64542 11.9054 2.90185C11.9408 2.98273 11.9701 3.10882 11.9819 3.40779C12.0081 4.07118 12.3698 4.70992 13.0118 5.06087C13.6538 5.41183 14.4189 5.38899 15.0388 5.07878C15.3181 4.93899 15.4482 4.89999 15.5398 4.88856C15.8304 4.85234 16.1243 4.92691 16.3569 5.09586C16.4155 5.13843 16.4899 5.21107 16.6089 5.37874C16.7313 5.5511 16.8728 5.78264 17.0834 6.12791C17.2939 6.47318 17.435 6.70506 17.5314 6.89155C17.6252 7.07297 17.6545 7.17029 17.6641 7.23961C17.7024 7.51479 17.6237 7.79309 17.4452 8.01329C17.3889 8.08275 17.2883 8.16985 17.0206 8.32901C16.427 8.68223 16.0236 9.29808 16.0235 9.99992C16.0235 10.7018 16.4269 11.3178 17.0206 11.671C17.2882 11.8301 17.3888 11.9172 17.4451 11.9867C17.6236 12.2069 17.7023 12.4852 17.6641 12.7604C17.6544 12.8297 17.6252 12.927 17.5313 13.1084C17.4349 13.2948 17.2938 13.5267 17.0833 13.872C16.8728 14.2173 16.7312 14.4488 16.6088 14.6212C16.4898 14.7888 16.4154 14.8615 16.3568 14.904C16.1242 15.0731 15.8303 15.1476 15.5397 15.1114C15.4481 15.0999 15.318 15.0609 15.0387 14.9212C14.4188 14.6109 13.6537 14.5882 13.0116 14.9391C12.3698 15.2901 12.0081 15.9288 11.9819 16.5922C11.9701 16.8912 11.9408 17.0172 11.9054 17.0982C11.7932 17.3545 11.578 17.5583 11.3072 17.6646C11.239 17.6913 11.1354 17.716 10.9224 17.7297C10.7037 17.7439 10.4211 17.7442 10 17.7442C9.57892 17.7442 9.29632 17.7439 9.07747 17.7297C8.86463 17.716 8.761 17.6913 8.69273 17.6646C8.42198 17.5583 8.20677 17.3545 8.09458 17.0982C8.05919 17.0172 8.02986 16.8912 8.01805 16.5922C7.99185 15.9289 7.6302 15.2901 6.98818 14.9391C6.34617 14.5882 5.58111 14.611 4.96122 14.9212C4.68186 15.061 4.55186 15.1 4.46019 15.1114C4.16955 15.1477 3.87561 15.0731 3.64305 14.9041C3.58446 14.8616 3.51007 14.7889 3.39106 14.6212C3.26873 14.4489 3.12711 14.2174 2.91658 13.8721C2.70603 13.5268 2.56505 13.2949 2.46857 13.1085C2.37471 12.9271 2.34546 12.8297 2.33583 12.7604C2.29756 12.4852 2.37632 12.2069 2.55478 11.9867C2.61107 11.9173 2.71174 11.8301 2.9793 11.671C3.57297 11.3179 3.97639 10.7019 3.97643 10.0001C3.97647 9.29808 3.57303 8.68215 2.97931 8.32893C2.71181 8.16977 2.61115 8.08268 2.55486 8.01323C2.37641 7.79303 2.29765 7.51474 2.33591 7.23955C2.34555 7.17024 2.3748 7.07291 2.46866 6.8915C2.56514 6.705 2.70612 6.47312 2.91666 6.12785C3.1272 5.78258 3.26881 5.55104 3.39115 5.37868C3.51016 5.21102 3.58455 5.13837 3.64313 5.09581C3.8757 4.92685 4.16963 4.85228 4.46027 4.8885C4.55195 4.89993 4.68196 4.93893 4.96136 5.07875C5.58121 5.38894 6.34624 5.41178 6.98822 5.06084C7.63021 4.70991 7.99185 4.07119 8.01805 3.40783C8.02986 3.10884 8.05919 2.98274 8.09458 2.90185C8.20677 2.64542 8.42198 2.44169 8.69273 2.33547Z" fill="currentColor"/>
<path fill-rule="evenodd" clip-rule="evenodd" d="M10.3159 7C8.48459 7 7 8.40562 7 10.1395C7 11.8735 8.48459 13.2791 10.3159 13.2791C12.1473 13.2791 13.6318 11.8735 13.6318 10.1395C13.6318 8.40562 12.1473 7 10.3159 7ZM8.32636 10.1395C8.32636 9.09922 9.21714 8.25581 10.3159 8.25581C11.4147 8.25581 12.3054 9.09922 12.3054 10.1395C12.3054 11.1799 11.4147 12.0233 10.3159 12.0233C9.21714 12.0233 8.32636 11.1799 8.32636 10.1395Z" fill="currentColor"/>
</svg>
