<svg width="18" height="18" viewBox="0 0 18 18" fill="none" xmlns="http://www.w3.org/2000/svg">
    <path d="M9.00043 12.2727C9.67852 12.2727 10.3414 12.0808 10.9052 11.7212C11.469 11.3616 11.9085 10.8504 12.168 10.2524C12.4275 9.65441 12.4954 8.99637 12.3631 8.36152C12.2308 7.72668 11.9042 7.14353 11.4248 6.68583C10.9453 6.22813 10.3344 5.91644 9.6693 5.79016C9.00423 5.66388 8.31487 5.72869 7.68839 5.97639C7.06192 6.2241 6.52646 6.64357 6.14973 7.18177C5.773 7.71997 5.57192 8.35272 5.57192 9C5.57192 9.86798 5.93314 10.7004 6.57611 11.3142C7.21908 11.9279 8.09113 12.2727 9.00043 12.2727ZM9.00043 7.36364C9.33948 7.36364 9.67091 7.45961 9.95282 7.63941C10.2347 7.81922 10.4544 8.07478 10.5842 8.37379C10.7139 8.6728 10.7479 9.00181 10.6817 9.31924C10.6156 9.63666 10.4523 9.92823 10.2126 10.1571C9.97285 10.3859 9.6674 10.5418 9.33486 10.6049C9.00233 10.6681 8.65765 10.6357 8.34441 10.5118C8.03117 10.388 7.76344 10.1782 7.57508 9.90911C7.38671 9.64002 7.28617 9.32364 7.28617 9C7.28617 8.56601 7.46678 8.14979 7.78827 7.84292C8.10975 7.53604 8.54578 7.36364 9.00043 7.36364ZM1.71485 9.71755L0.857719 10.1913C0.662698 10.2987 0.491746 10.4417 0.354625 10.6121C0.217504 10.7826 0.1169 10.9771 0.0585578 11.1847C0.000216035 11.3923 -0.0147209 11.6088 0.0146 11.8218C0.043921 12.0349 0.116925 12.2404 0.229444 12.4265L1.50571 14.5358C1.61813 14.7223 1.76796 14.8857 1.94663 15.0168C2.12529 15.1479 2.32929 15.2441 2.54695 15.2999C2.7646 15.3557 2.99164 15.37 3.21508 15.3419C3.43852 15.3138 3.65396 15.244 3.84909 15.1364L4.71479 14.6585C4.8469 14.5874 4.99635 14.5507 5.14805 14.5523C5.29975 14.5539 5.44832 14.5936 5.57878 14.6675C5.70761 14.7387 5.81461 14.841 5.88906 14.964C5.96352 15.0871 6.00283 15.2266 6.00305 15.3687V16.3636C6.00305 16.7976 6.18366 17.2138 6.50515 17.5207C6.82663 17.8276 7.26266 18 7.71731 18H10.2887C10.7433 18 11.1794 17.8276 11.5009 17.5207C11.8223 17.2138 12.0029 16.7976 12.0029 16.3636V15.3671C12.0052 15.2243 12.0463 15.0846 12.122 14.9615C12.1978 14.8384 12.3057 14.7361 12.4353 14.6647C12.5648 14.5934 12.7115 14.5553 12.8611 14.5542C13.0107 14.5531 13.158 14.5891 13.2886 14.6585L14.1535 15.1347C14.5472 15.3517 15.0151 15.4105 15.4543 15.2982C15.8934 15.1859 16.2678 14.9116 16.4951 14.5358L17.7706 12.4265C17.8831 12.2404 17.9561 12.0349 17.9854 11.8218C18.0147 11.6088 17.9998 11.3923 17.9414 11.1847C17.8831 10.9771 17.7825 10.7826 17.6454 10.6121C17.5083 10.4417 17.3373 10.2987 17.1423 10.1913L16.2852 9.71755C16.1522 9.64364 16.0424 9.53716 15.967 9.40913C15.8917 9.28111 15.8536 9.13618 15.8566 8.98936C15.8569 8.84602 15.8966 8.70528 15.9719 8.58121C16.0471 8.45715 16.1551 8.35412 16.2852 8.28245L17.1423 7.80873C17.3373 7.70135 17.5083 7.55835 17.6454 7.3879C17.7825 7.21744 17.8831 7.02288 17.9414 6.81531C17.9998 6.60774 18.0147 6.39124 17.9854 6.17816C17.9561 5.96508 17.8831 5.7596 17.7706 5.57345L16.4934 3.46418C16.381 3.27795 16.2313 3.11469 16.0527 2.98372C15.8742 2.85275 15.6704 2.75663 15.4529 2.70086C15.2355 2.6451 15.0086 2.63077 14.7854 2.65869C14.5621 2.68662 14.3468 2.75626 14.1518 2.86364L13.2861 3.34064C13.1554 3.41041 13.0079 3.44657 12.8582 3.44557C12.7085 3.44456 12.5616 3.40642 12.4319 3.33489C12.3023 3.26336 12.1943 3.1609 12.1187 3.03755C12.043 2.9142 12.0023 2.7742 12.0004 2.63127V1.63636C12.0004 1.20237 11.8198 0.786158 11.4983 0.47928C11.1768 0.172402 10.7408 0 10.2861 0H7.71474C7.26009 0 6.82406 0.172402 6.50258 0.47928C6.18109 0.786158 6.00048 1.20237 6.00048 1.63636V2.69509C6.00046 2.81788 5.96654 2.9385 5.90213 3.04479C5.83773 3.15108 5.74512 3.23929 5.63363 3.30055L5.50163 3.37336C5.39008 3.4339 5.26396 3.46573 5.13564 3.46573C5.00732 3.46573 4.8812 3.4339 4.76965 3.37336L3.84909 2.86364C3.6541 2.75607 3.43882 2.68623 3.21554 2.65811C2.99226 2.63 2.76537 2.64415 2.54783 2.69977C2.33028 2.75539 2.12635 2.85138 1.94769 2.98226C1.76902 3.11314 1.61913 3.27635 1.50656 3.46254L0.231159 5.57427C0.00404517 5.94994 -0.0575344 6.39631 0.0599521 6.81529C0.177438 7.23427 0.464379 7.59159 0.857719 7.80873L1.71485 8.28164C1.84767 8.35587 1.95738 8.46253 2.0327 8.59066C2.10802 8.71878 2.14623 8.86374 2.14341 9.01064C2.14363 9.15408 2.1041 9.29502 2.02883 9.41917C1.95357 9.54332 1.84524 9.64626 1.71485 9.71755ZM2.57197 6.86454L1.71485 6.39164L2.99197 4.28236L3.91252 4.78964C4.28416 4.9935 4.7053 5.10078 5.13393 5.10078C5.56256 5.10078 5.9837 4.9935 6.35533 4.78964L6.48733 4.71764C6.85953 4.51261 7.16879 4.21788 7.3842 3.86294C7.5996 3.508 7.71358 3.10529 7.71474 2.69509V1.63636H10.2861V2.63127C10.2879 3.0615 10.4078 3.48376 10.6339 3.85596C10.8599 4.22816 11.1843 4.53729 11.5745 4.75252C11.9648 4.96776 12.4073 5.08158 12.858 5.08263C13.3087 5.08369 13.7518 4.97195 14.1432 4.75855L15.0063 4.28236L16.286 6.39164L15.4289 6.86454C15.0386 7.08271 14.7149 7.39455 14.49 7.7691C14.265 8.14365 14.1467 8.56786 14.1467 8.99959C14.1467 9.43132 14.265 9.85553 14.49 10.2301C14.7149 10.6046 15.0386 10.9165 15.4289 11.1346L16.286 11.6084L15.0106 13.7176L14.1432 13.2415C13.7518 13.0281 13.3087 12.9163 12.858 12.9174C12.4073 12.9184 11.9648 13.0322 11.5745 13.2475C11.1843 13.4627 10.8599 13.7718 10.6339 14.144C10.4078 14.5162 10.2879 14.9385 10.2861 15.3687V16.3636H7.71474V15.3687C7.71347 14.9383 7.59389 14.5157 7.36796 14.1433C7.14202 13.7708 6.81763 13.4614 6.4272 13.2461C6.03678 13.0307 5.59399 12.917 5.14308 12.9162C4.69217 12.9154 4.24894 13.0275 3.85766 13.2415L2.99454 13.7176L1.71485 11.6084L2.57197 11.1346C2.96226 10.9165 3.28594 10.6046 3.51087 10.2301C3.73581 9.85553 3.85415 9.43132 3.85415 8.99959C3.85415 8.56786 3.73581 8.14365 3.51087 7.7691C3.28594 7.39455 2.96226 7.08271 2.57197 6.86454Z" fill="currentColor" />
</svg>