<svg width="18" height="19" viewBox="0 0 18 19" fill="none" xmlns="http://www.w3.org/2000/svg">
    <path fill-rule="evenodd" clip-rule="evenodd" d="M5.25439 3.76572C5.6686 3.76578 6.00434 4.10162 6.00428 4.51583L6.00317 11.7052L7.72311 9.98577C8.01603 9.69294 8.49093 9.69301 8.78376 9.98593C9.07659 10.2789 9.07652 10.7538 8.7836 11.0466L5.78314 14.0461C5.4902 14.339 5.01533 14.3389 4.72248 14.046L1.72294 11.0455C1.43009 10.7526 1.43017 10.2777 1.7231 9.98485C2.01605 9.69202 2.49092 9.69209 2.78377 9.98501L4.50317 11.7049L4.50428 4.5156C4.50434 4.10139 4.84018 3.76565 5.25439 3.76572ZM12.224 3.98646C12.517 3.69361 12.9919 3.69369 13.2847 3.98662L16.2842 6.98708C16.5771 7.28003 16.577 7.75491 16.2841 8.04774C15.9911 8.34057 15.5162 8.3405 15.2234 8.04758L13.504 6.32765L13.5029 13.517C13.5028 13.9312 13.167 14.2669 12.7528 14.2669C12.3386 14.2668 12.0028 13.931 12.0029 13.5168L12.004 6.32741L10.2841 8.04682C9.99114 8.33965 9.51624 8.33957 9.22341 8.04665C8.93058 7.75373 8.93065 7.27885 9.22357 6.98599L12.224 3.98646Z" fill="currentColor" />
</svg>