<svg width="20" height="20" viewBox="0 0 20 20" fill="none" xmlns="http://www.w3.org/2000/svg">
<path fill-rule="evenodd" clip-rule="evenodd" d="M16.875 18.125C16.875 18.4706 16.5956 18.75 16.25 18.75C15.9044 18.75 15.625 18.4706 15.625 18.125V11.875C15.625 11.53 15.9044 11.25 16.25 11.25C16.5956 11.25 16.875 11.53 16.875 11.875V18.125ZM16.875 10H15.625C14.935 10 14.375 10.56 14.375 11.25V18.75C14.375 19.44 14.935 20 15.625 20H16.875C17.565 20 18.125 19.44 18.125 18.75V11.25C18.125 10.56 17.565 10 16.875 10ZM4.375 18.125C4.375 18.4706 4.09562 18.75 3.75 18.75C3.40438 18.75 3.125 18.4706 3.125 18.125V7.5C3.125 7.155 3.40438 6.875 3.75 6.875C4.09562 6.875 4.375 7.155 4.375 7.5V18.125ZM4.375 5.625H3.125C2.435 5.625 1.875 6.185 1.875 6.875V18.75C1.875 19.44 2.435 20 3.125 20H4.375C5.065 20 5.625 19.44 5.625 18.75V6.875C5.625 6.185 5.065 5.625 4.375 5.625ZM10.625 18.125C10.625 18.4706 10.3456 18.75 10 18.75C9.65438 18.75 9.375 18.4706 9.375 18.125V1.875C9.375 1.52938 9.65438 1.25 10 1.25C10.3456 1.25 10.625 1.52938 10.625 1.875V18.125ZM10.625 0H9.375C8.685 0 8.125 0.56 8.125 1.25V18.75C8.125 19.44 8.685 20 9.375 20H10.625C11.315 20 11.875 19.44 11.875 18.75V1.25C11.875 0.56 11.315 0 10.625 0Z" fill="currentColor"/>
</svg>
