<svg width="24" height="24" viewBox="0 0 24 24" fill="none" xmlns="http://www.w3.org/2000/svg">
    <path d="M10.5117 1.99995C11.1978 1.99995 11.7042 1.99336 12.1914 2.1103C12.5994 2.2083 12.9898 2.37058 13.3476 2.58979C13.7745 2.85151 14.1282 3.21413 14.6132 3.69916L19.3134 8.39838C19.8957 8.98065 20.375 9.45984 20.7324 9.88081C21.0973 10.3107 21.3932 10.7457 21.5615 11.2636C21.8225 12.0671 21.8225 12.9328 21.5615 13.7363C21.3932 14.2542 21.0973 14.6892 20.7324 15.1191C20.375 15.5401 19.8957 16.0192 19.3134 16.6015L16.6015 19.3134C16.0192 19.8957 15.5401 20.375 15.1191 20.7324C14.6892 21.0973 14.2542 21.3932 13.7363 21.5615C12.9328 21.8225 12.0671 21.8225 11.2636 21.5615C10.7457 21.3932 10.3107 21.0973 9.88081 20.7324C9.45984 20.375 8.98065 19.8957 8.39838 19.3134L3.69916 14.6132C3.21413 14.1282 2.85151 13.7745 2.58979 13.3476C2.37058 12.9898 2.2083 12.5994 2.1103 12.1914C1.99336 11.7042 1.99995 11.1978 1.99995 10.5117V7.79975C1.99995 6.97626 1.99892 6.29837 2.04389 5.74799C2.08982 5.18594 2.18822 4.66884 2.43549 4.18354C2.81896 3.43103 3.43103 2.81896 4.18354 2.43549C4.66884 2.18822 5.18594 2.08982 5.74799 2.04389C6.29837 1.99892 6.97626 1.99995 7.79975 1.99995H10.5117ZM7.20307 5.55756C7.95949 5.63436 8.54975 6.2731 8.54975 7.04975C8.54975 7.87818 7.87818 8.54975 7.04975 8.54975C6.2731 8.54975 5.63436 7.95949 5.55756 7.20307L5.54975 7.04975L5.55756 6.89643C5.63436 6.14003 6.27309 5.54975 7.04975 5.54975L7.20307 5.55756ZM3.99995 10.5117C3.99995 11.2929 4.00677 11.5211 4.05561 11.7246C4.1046 11.9284 4.18521 12.1237 4.29487 12.3027C4.40416 12.4809 4.56106 12.647 5.11323 13.1992L9.81342 17.8984C10.4189 18.5039 10.8305 18.9157 11.1748 19.208C11.51 19.4926 11.7149 19.6049 11.8818 19.6591C12.2835 19.7897 12.7164 19.7897 13.1181 19.6591C13.2849 19.6049 13.4899 19.4926 13.8251 19.208C14.1694 18.9157 14.581 18.5039 15.1865 17.8984L17.8984 15.1865C18.5039 14.581 18.9157 14.1694 19.208 13.8251C19.4926 13.4899 19.6049 13.2849 19.6591 13.1181C19.7897 12.7164 19.7897 12.2835 19.6591 11.8818C19.6049 11.7149 19.4926 11.51 19.208 11.1748C18.9157 10.8305 18.5039 10.4189 17.8984 9.81342L13.1992 5.11323C12.647 4.56106 12.4809 4.40416 12.3027 4.29487C12.1237 4.18521 11.9284 4.1046 11.7246 4.05561C11.5211 4.00677 11.2929 3.99995 10.5117 3.99995H7.79975C6.94336 3.99995 6.36111 4.00029 5.91108 4.03705C5.47266 4.07287 5.24814 4.13803 5.09174 4.21772C4.71549 4.40945 4.40945 4.71549 4.21772 5.09174C4.13803 5.24814 4.07287 5.47266 4.03705 5.91108C4.00029 6.36111 3.99995 6.94336 3.99995 7.79975V10.5117Z" fill="currentColor" />
</svg>