<svg width="20" height="20" viewBox="0 0 20 20" fill="none" xmlns="http://www.w3.org/2000/svg">
<g clip-path="url(#clip0_675_15)">
<path d="M16.2722 18.8887H3.72777C3.60374 18.8894 3.48079 18.8657 3.36592 18.8189C3.25106 18.7722 3.14653 18.7032 3.05832 18.616C2.9701 18.5288 2.89992 18.4251 2.85178 18.3108C2.80365 18.1965 2.7785 18.0738 2.77777 17.9498V3.71648C2.78107 3.57905 2.81347 3.44388 2.87285 3.3199C2.93222 3.19591 3.01721 3.08592 3.12221 2.9972C3.22722 2.90847 3.34984 2.84302 3.48199 2.80517C3.61415 2.76731 3.75283 2.75791 3.88888 2.77759H4.99999V3.8887H3.88888V17.7776H16.1111V3.8887H15V2.77759H16.25C16.3759 2.77388 16.5012 2.79539 16.6187 2.84084C16.7361 2.8863 16.8433 2.95478 16.9339 3.04226C17.0244 3.12974 17.0966 3.23445 17.1461 3.35024C17.1957 3.46603 17.2215 3.59055 17.2222 3.71648V17.9498C17.2215 18.0738 17.1963 18.1965 17.1482 18.3108C17.1001 18.4251 17.0299 18.5288 16.9417 18.616C16.8535 18.7032 16.7489 18.7722 16.6341 18.8189C16.5192 18.8657 16.3962 18.8894 16.2722 18.8887Z" fill="currentColor"/>
<path d="M9.10893 14.5003L6.13115 11.5225C6.04084 11.4156 5.99421 11.2785 6.00058 11.1387C6.00695 10.9989 6.06585 10.8666 6.16551 10.7684C6.26518 10.6701 6.39825 10.6131 6.53814 10.6087C6.67803 10.6043 6.81442 10.6529 6.92004 10.7447L9.10893 12.9336L13.9089 8.13359C14.0152 8.04257 14.1519 7.99501 14.2917 8.00041C14.4316 8.00581 14.5642 8.06378 14.6631 8.16272C14.7621 8.26166 14.82 8.39429 14.8254 8.53411C14.8308 8.67393 14.7833 8.81064 14.6923 8.91692L9.10893 14.5003Z" fill="currentColor"/>
<path d="M14.4444 6.11129H5.55554V4.0724C5.557 3.72954 5.69385 3.40115 5.93629 3.15871C6.17873 2.91627 6.50713 2.77942 6.84999 2.77796H7.84443C7.96682 2.29995 8.24482 1.87627 8.6346 1.57371C9.02439 1.27116 9.50378 1.10693 9.99721 1.10693C10.4906 1.10693 10.97 1.27116 11.3598 1.57371C11.7496 1.87627 12.0276 2.29995 12.15 2.77796H13.1444C13.4883 2.77795 13.8181 2.91416 14.0617 3.15675C14.3053 3.39935 14.443 3.72858 14.4444 4.0724V6.11129ZM6.66665 5.00018H13.3333V4.0724C13.3333 4.02378 13.314 3.97715 13.2796 3.94277C13.2452 3.90838 13.1986 3.88907 13.15 3.88907H11.1111V3.33351C11.1111 3.03883 10.994 2.75621 10.7857 2.54784C10.5773 2.33947 10.2947 2.2224 9.99999 2.2224C9.7053 2.2224 9.42269 2.33947 9.21431 2.54784C9.00594 2.75621 8.88888 3.03883 8.88888 3.33351V3.88907H6.84999C6.82591 3.88907 6.80207 3.89381 6.77983 3.90302C6.75758 3.91224 6.73737 3.92574 6.72035 3.94277C6.70333 3.95979 6.68982 3.98 6.68061 4.00224C6.6714 4.02449 6.66665 4.04833 6.66665 4.0724V5.00018Z" fill="currentColor"/>
</g>
</svg>
