<svg width="24" height="24" viewBox="0 0 24 24" fill="none" xmlns="http://www.w3.org/2000/svg">
    <path d="M19.5 12C19.5 7.85787 16.1422 4.5 12 4.5C7.85787 4.5 4.5 7.85787 4.5 12C4.5 16.1422 7.85787 19.5 12 19.5C16.1422 19.5 19.5 16.1422 19.5 12ZM11.5 7.55566C11.5 7.27952 11.7239 7.05566 12 7.05566C12.2761 7.05566 12.5 7.27952 12.5 7.55566V11.7168L14.4795 12.9043C14.7163 13.0464 14.7934 13.354 14.6514 13.5908C14.5093 13.8276 14.2016 13.9038 13.9648 13.7617L11.7432 12.4287C11.5926 12.3383 11.5 12.1756 11.5 12V7.55566ZM20.5 12C20.5 16.6945 16.6945 20.5 12 20.5C7.30558 20.5 3.5 16.6945 3.5 12C3.5 7.30558 7.30558 3.5 12 3.5C16.6945 3.5 20.5 7.30558 20.5 12Z" fill="currentColor" />
</svg>